 <svg  version="1.0" xmlns="http://www.w3.org/2000/svg"  width="300.000000pt" height="373.000000pt" viewBox="0 0 300.000000 373.000000"  preserveAspectRatio="xMidYMid meet">  <g transform="translate(0.000000,373.000000) scale(0.050000,-0.050000)" fill="#2b620e" stroke="none"> <path d="M5890 7440 c-7 -12 -23 -15 -34 -7 -14 8 -16 4 -7 -11 8 -14 20 -20 26 -14 19 19 65 -31 51 -55 -7 -13 6 -6 29 14 27 23 37 49 29 70 -11 27 -15 24 -20 -13 -6 -37 -13 -42 -35 -23 -16 13 -24 32 -18 41 6 10 7 18 1 18 -5 0 -15 -9 -22 -20z"/> <path d="M2568 6171 c-7 -16 11 -108 38 -205 28 -97 91 -347 142 -556 50 -209 146 -605 213 -880 91 -373 119 -518 108 -570 -7 -38 -13 -122 -12 -186 1 -93 -15 -152 -78 -298 -43 -101 -79 -195 -79 -209 0 -38 -82 -83 -140 -78 -74 6 -72 59 4 92 103 45 116 202 32 364 -144 276 -482 193 -527 -129 -12 -90 -27 -117 -111 -198 -126 -121 -132 -338 -10 -338 52 0 58 -416 7 -510 -115 -215 -142 -289 -169 -469 -38 -263 -53 -311 -148 -471 -191 -325 -266 -492 -240 -534 20 -32 19 -46 -3 -73 -131 -157 -112 -227 79 -301 242 -93 455 -66 281 37 -202 119 -182 227 27 148 132 -49 555 -50 684 0 116 45 165 21 146 -71 -22 -111 -11 -116 270 -116 303 0 323 17 147 130 -124 79 -161 141 -116 193 26 29 26 82 1 421 -31 420 -30 414 -186 668 -164 264 -114 528 100 528 116 0 156 26 277 180 l55 70 -12 -124 c-15 -147 -2 -211 54 -263 29 -27 62 -125 111 -326 195 -805 273 -1117 302 -1212 37 -120 27 -142 -78 -163 -47 -9 -69 -26 -73 -55 -7 -48 214 -82 306 -47 26 10 93 13 148 7 144 -18 162 -6 140 87 -10 42 -12 239 -5 441 l13 365 159 102 c87 56 167 94 176 85 9 -9 78 -113 153 -231 132 -206 289 -397 531 -645 140 -143 148 -203 35 -241 -119 -40 -100 -118 30 -127 99 -6 230 40 230 82 0 10 36 50 80 90 96 86 97 98 20 195 -33 42 -60 86 -60 98 0 12 -63 103 -139 202 -239 311 -272 368 -341 600 -94 315 -100 345 -71 369 20 17 13 55 -30 177 -37 106 -63 234 -78 395 -37 386 -41 402 -97 486 -30 45 -91 113 -137 152 l-84 71 -131 -88 c-117 -78 -132 -84 -132 -48 0 31 -8 37 -35 25 -181 -77 -411 -108 -491 -66 -182 95 -383 251 -412 321 -21 49 -51 82 -87 95 -58 20 -73 75 -33 115 31 31 -4 127 -80 224 -54 67 -182 497 -182 608 0 112 407 51 825 -123 264 -110 377 -127 793 -119 347 6 354 5 467 -48 146 -68 147 -90 -24 431 -77 233 -150 468 -162 523 -70 317 -73 319 -699 426 -139 23 -305 69 -420 114 -516 203 -802 288 -975 289 l-164 1 -30 70 c-30 72 -83 93 -103 41z m302 -291 c-11 18 -5 19 28 1 24 -13 52 -17 63 -11 27 17 159 -28 159 -54 0 -11 13 -15 29 -9 17 6 35 2 42 -8 6 -11 19 -15 28 -9 10 5 101 -23 204 -62 103 -40 200 -75 216 -77 16 -3 32 -17 36 -33 7 -23 5 -23 -11 -1 -13 19 -23 21 -33 5 -7 -12 3 -28 23 -35 20 -7 44 -18 54 -23 10 -6 12 0 4 13 -8 13 -5 23 7 23 11 0 21 -10 21 -22 0 -14 20 -17 55 -9 36 9 48 7 35 -6 -11 -10 -38 -22 -60 -26 -25 -5 -44 -29 -52 -67 -8 -33 -14 -53 -16 -44 -3 22 -73 -49 -87 -89 -7 -17 -2 -42 11 -55 16 -16 15 -22 -5 -22 -15 0 -22 -6 -15 -13 8 -7 4 -24 -7 -38 -31 -38 -40 -109 -13 -109 14 0 23 -27 22 -65 -2 -36 6 -76 17 -90 11 -14 14 -25 7 -25 -7 0 1 -27 18 -60 17 -33 30 -65 29 -73 -1 -7 8 -19 21 -27 16 -10 14 -18 -8 -27 -18 -6 -32 -2 -32 10 0 12 -13 16 -29 10 -17 -6 -35 -3 -42 8 -6 10 -42 19 -79 19 -36 0 -70 10 -74 22 -10 31 -208 30 -245 -1 -17 -14 -31 -18 -32 -8 0 9 -11 3 -25 -14 -61 -79 -91 -63 -133 77 -33 110 -182 712 -230 929 -16 72 24 119 76 91 28 -15 34 -14 23 4z m1408 -439 c371 -191 320 -741 -72 -775 -339 -29 -591 333 -448 644 84 184 308 240 520 131z m354 -106 c-12 -19 -32 -35 -44 -35 -13 0 -27 16 -32 35 -8 27 3 35 44 35 47 0 51 -5 32 -35z m73 -23 c19 -14 29 -32 21 -39 -7 -7 -2 -13 11 -13 13 0 22 -7 20 -15 -2 -8 2 -28 7 -45 6 -16 22 -70 36 -120 14 -49 36 -121 50 -160 13 -38 20 -83 15 -98 -6 -17 -1 -22 12 -14 15 9 23 -3 23 -32 0 -25 13 -71 29 -101 24 -47 24 -59 1 -82 -16 -16 -22 -35 -14 -44 8 -8 -6 -10 -31 -4 -25 6 -45 3 -45 -7 0 -10 -61 -18 -135 -18 -74 0 -153 -1 -175 -3 -73 -5 -93 2 -77 28 11 19 8 19 -17 -1 -26 -21 -33 -20 -43 5 -7 19 -1 31 16 31 16 0 49 29 74 65 25 36 50 70 56 75 6 6 28 44 49 86 27 53 44 68 55 50 23 -37 22 16 -2 99 -11 41 -11 69 1 77 13 7 12 21 -2 38 -14 16 -15 31 -3 38 11 7 15 30 9 52 -6 22 -19 34 -30 27 -11 -6 -10 7 3 31 15 28 15 42 2 42 -14 0 -12 15 4 40 29 47 34 47 80 12z m-1481 -1490 c45 23 45 23 11 -16 -46 -52 -44 -72 5 -56 51 16 50 5 -8 -96 -26 -46 -58 -117 -71 -157 -25 -81 -90 -151 -110 -119 -7 11 -4 36 7 56 61 115 98 310 71 376 -14 35 -12 37 16 14 26 -21 42 -22 79 -2z m-453 -237 c19 -91 13 -150 -18 -170 -16 -11 -15 -20 7 -34 35 -23 11 -53 -50 -64 -22 -4 -41 -21 -42 -37 -1 -17 -3 -51 -5 -77 -3 -46 -7 -47 -115 -34 -71 9 -108 7 -101 -5 7 -11 70 -25 141 -33 125 -13 128 -15 138 -77 5 -35 16 -84 24 -108 18 -56 -75 -77 -262 -59 -71 6 -128 4 -128 -5 0 -24 74 -41 175 -42 100 0 101 -5 33 -94 -126 -165 -322 -252 -251 -111 21 41 35 89 33 105 -3 17 -11 66 -18 109 -13 78 -38 110 -87 111 -102 1 11 178 140 219 129 41 190 187 104 249 -48 35 -15 98 45 86 38 -7 64 9 121 78 82 98 94 98 116 -7z m662 -143 c126 -124 74 -211 -88 -149 -94 36 -103 73 -18 83 29 4 53 16 53 28 0 13 -27 17 -70 10 -42 -7 -66 -4 -59 7 6 11 33 19 60 19 27 0 49 10 49 23 0 14 -25 18 -70 11 -71 -12 -100 15 -35 32 76 20 102 11 178 -64z m-172 -153 c46 -55 -63 -375 -145 -427 -37 -23 -48 -19 -103 36 l-61 61 56 58 c57 61 152 290 152 371 0 76 26 77 51 2 14 -39 36 -84 50 -101z m180 -98 c99 -160 361 -303 599 -325 199 -19 251 -79 116 -134 -334 -138 -803 -12 -696 188 21 40 -15 167 -69 245 -17 24 -31 55 -31 69 0 37 47 12 81 -43z m1077 -56 c-26 -25 -95 -99 -152 -163 -121 -137 -161 -118 -93 45 33 79 47 93 93 91 32 -1 54 8 54 23 0 29 22 39 95 45 l51 4 -48 -45z m-1627 -7 c71 -47 64 -119 -16 -168 l-64 -39 -25 44 c-32 59 -33 169 -1 182 42 17 54 14 106 -19z m1739 12 c7 -12 21 -15 31 -9 11 6 19 -5 19 -25 0 -21 12 -55 27 -77 15 -21 25 -60 23 -85 -2 -30 5 -42 22 -36 96 37 -29 -127 -237 -311 -178 -157 -172 -155 -250 -82 -52 49 -85 140 -41 113 9 -6 12 -19 5 -29 -6 -10 3 -13 21 -6 18 7 29 27 26 44 -4 18 10 49 31 70 25 25 33 52 24 87 -21 81 261 407 299 346z m-417 -123 c-28 -63 -30 -64 -31 -16 -1 28 9 62 22 75 37 37 41 14 9 -59z m-875 -126 c34 -21 -58 -131 -109 -131 -28 0 -55 -23 -80 -70 -43 -80 -76 -81 -85 -4 -8 64 27 134 67 134 16 0 29 11 29 25 1 17 7 15 20 -5 16 -25 19 -25 20 -2 0 16 15 63 34 105 l34 77 24 -58 c13 -31 34 -63 46 -71z m-412 -101 c-19 -120 -49 -187 -97 -219 -27 -17 -49 -45 -49 -61 0 -17 -8 -30 -18 -30 -25 0 -39 -91 -18 -127 18 -33 -70 -218 -181 -379 -109 -158 -372 -395 -529 -476 -41 -22 -70 -48 -64 -59 53 -84 531 339 705 625 120 197 123 189 34 -87 -114 -350 -297 -684 -456 -836 -75 -71 -90 -101 -50 -101 103 0 409 511 532 889 l52 160 35 -80 c19 -43 36 -92 37 -109 2 -38 42 -144 97 -260 56 -116 64 -414 12 -433 -17 -7 -23 -18 -12 -25 11 -7 23 -39 26 -72 4 -33 23 -85 44 -115 l37 -56 -66 -27 c-117 -47 -217 -58 -217 -24 0 17 -16 39 -36 50 -41 22 -364 4 -364 -20 0 -9 -11 -13 -25 -8 -14 6 -73 13 -132 17 -59 4 -114 19 -123 33 -12 19 -25 19 -60 0 -30 -16 -40 -17 -31 -2 16 26 -3 26 -59 2 -27 -12 -30 -18 -10 -19 18 -1 10 -12 -20 -28 -113 -60 -295 67 -194 135 35 24 64 55 64 69 0 15 14 37 32 50 33 24 38 34 38 82 0 18 12 25 29 19 21 -8 25 0 17 32 -7 24 -2 50 10 58 13 7 25 43 28 80 3 36 25 87 49 113 24 26 49 75 57 108 7 34 31 71 52 82 27 15 38 42 38 99 0 59 7 76 28 68 15 -6 35 0 43 14 10 15 7 19 -8 10 -36 -23 -51 45 -18 84 43 50 65 93 40 77 -30 -18 -68 36 -53 76 9 23 18 27 27 12 8 -12 14 6 14 40 0 34 13 71 29 80 15 10 20 19 11 19 -10 0 -7 13 7 30 13 16 19 44 12 61 -6 18 -3 26 8 19 11 -7 20 -3 20 9 0 11 -11 21 -25 22 -14 1 15 21 65 44 88 43 226 166 321 288 27 35 75 69 107 76 171 39 -109 -408 -358 -572 -86 -56 -121 -89 -100 -94 124 -25 507 402 541 603 8 46 24 90 36 98 31 19 51 -40 39 -114z m1863 -73 c-19 -113 -16 -235 7 -263 10 -13 17 -49 16 -79 -2 -30 5 -55 16 -55 10 0 13 -6 6 -13 -7 -7 1 -31 17 -54 16 -23 29 -58 29 -79 0 -20 8 -32 17 -26 9 6 27 -12 40 -40 33 -72 -72 -114 -287 -115 -211 0 -335 37 -275 85 22 17 51 54 65 80 23 44 27 45 44 13 20 -34 163 -110 211 -111 50 0 23 37 -35 50 -76 17 -216 148 -181 169 36 23 23 46 -54 93 l-69 41 127 102 c70 56 167 143 216 193 109 112 108 112 90 9z m-1198 -86 c66 -12 69 -17 69 -97 l0 -84 -112 3 c-129 4 -150 16 -97 57 37 27 36 29 -21 31 -58 2 -58 3 -15 23 56 27 59 64 5 50 -22 -6 -40 -2 -40 8 0 11 27 24 60 31 33 7 61 22 62 35 2 12 7 7 11 -11 5 -19 39 -39 78 -46z m83 -243 c10 -28 51 -31 314 -25 l302 7 18 -74 c27 -110 -28 -217 -209 -406 -84 -88 -164 -180 -177 -205 -36 -70 -7 -767 34 -797 29 -21 19 -68 -14 -68 -16 0 -75 236 -254 1000 -81 351 -128 563 -128 585 0 30 102 14 114 -17z m825 -527 c31 -58 25 -78 -19 -67 -51 13 -64 33 -48 74 16 43 42 40 67 -7z m380 -20 c12 -21 20 -73 19 -115 0 -42 -6 -65 -11 -51 -6 14 -22 25 -37 25 -15 0 -33 18 -40 40 -7 22 -23 40 -36 41 -13 0 -7 13 15 30 21 16 27 29 14 29 -14 0 -20 9 -13 20 20 33 67 23 89 -19z"/> <path d="M4680 5101 c0 -38 15 -84 33 -105 28 -30 29 -45 9 -89 -13 -29 -19 -57 -13 -62 20 -21 53 105 39 154 -7 28 -16 67 -18 87 -7 74 -50 86 -50 15z"/> <path d="M2680 3542 c0 -23 58 -70 71 -58 18 18 -15 76 -43 76 -15 0 -28 -8 -28 -18z"/> <path d="M2761 1831 c-12 -29 -21 -69 -21 -88 0 -68 -95 -395 -157 -543 -68 -160 -73 -180 -46 -180 52 0 208 450 243 698 22 157 14 202 -19 113z"/> <path d="M2931 1575 c-4 -14 -18 -70 -31 -124 -21 -93 -74 -204 -177 -371 -57 -93 -54 -118 6 -61 83 78 213 350 225 472 10 98 -3 148 -23 84z"/> <path d="M4284 3969 c-28 -19 -42 -45 -35 -63 6 -16 -16 -88 -50 -158 -34 -71 -57 -144 -51 -163 6 -19 15 -70 20 -113 11 -93 20 -102 115 -128 76 -20 197 26 197 76 0 27 -13 25 -70 -12 -74 -48 -134 -20 -126 59 5 51 -1 62 -31 60 -28 -2 -34 7 -26 40 6 24 22 99 36 168 28 139 54 155 143 84 36 -28 56 -67 65 -130 15 -96 39 -127 75 -91 12 12 38 22 58 22 49 0 47 -73 -4 -105 -22 -13 -40 -40 -40 -59 0 -19 18 -44 40 -56 32 -17 40 -15 40 9 0 17 8 31 17 31 33 0 125 201 128 279 8 192 -342 366 -501 250z"/> <path d="M4280 3712 c0 -31 48 -77 65 -61 6 6 6 29 0 50 -11 44 -65 54 -65 11z"/> </g> </svg> 