<?xml version="1.0" standalone="no"?>
<!DOCTYPE svg PUBLIC "-//W3C//DTD SVG 20010904//EN"
 "http://www.w3.org/TR/2001/REC-SVG-20010904/DTD/svg10.dtd">
<svg version="1.0" xmlns="http://www.w3.org/2000/svg"
 width="300.000000pt" height="150.000000pt" viewBox="0 0 300.000000 150.000000"
 preserveAspectRatio="xMidYMid meet">
<metadata>
Created by potrace 1.10, written by Peter Selinger 2001-2011
</metadata>
<g transform="translate(0.000000,150.000000) scale(0.100000,-0.100000)"
fill="#da9216" stroke="none">
<path d="M600 1091 c0 -36 -4 -43 -34 -58 -42 -22 -196 -168 -196 -187 0 -7
13 -40 29 -72 16 -32 32 -67 35 -76 9 -29 55 -34 97 -10 52 30 84 27 154 -12
l60 -33 -1 -75 c-2 -131 -10 -160 -73 -256 -74 -112 -95 -132 -140 -132 -20 0
-49 -7 -65 -15 -30 -16 -46 -12 -46 9 0 16 -34 56 -47 56 -5 0 -1 -25 9 -56
10 -31 17 -59 14 -62 -3 -3 -24 14 -46 37 -52 53 -68 52 -35 -2 34 -60 33 -77
-7 -78 -18 -1 -44 -4 -58 -8 -46 -13 -3 -23 128 -31 176 -10 2089 -11 2240 -1
146 10 176 25 71 35 -40 3 -75 8 -77 10 -2 3 1 14 8 25 14 27 7 26 -30 -1 -16
-12 -32 -19 -35 -16 -3 3 3 30 15 59 33 89 19 92 -30 6 l-29 -51 -12 30 c-14
31 -48 74 -60 74 -3 0 -1 -17 7 -38 17 -49 17 -72 -1 -72 -8 0 -15 4 -15 8 0
5 -7 17 -16 28 -15 18 -15 18 -9 -9 5 -27 5 -27 -44 -27 -27 0 -52 4 -55 8 -2
4 -10 57 -16 118 -15 151 -14 148 -61 169 -48 22 -52 30 -79 166 -22 111 -24
139 -11 139 4 0 47 -47 95 -104 109 -132 148 -156 253 -156 62 0 82 4 118 26
80 47 127 150 110 241 -14 79 -62 143 -106 143 -41 0 -46 -30 -13 -80 34 -51
43 -124 20 -168 -34 -66 -114 -96 -182 -67 -50 21 -79 49 -169 161 -80 100
-126 140 -205 180 -110 55 -129 58 -475 59 -307 0 -323 1 -395 24 -41 13 -106
27 -145 32 -153 20 -225 46 -273 96 -38 41 -78 52 -97 27 -12 -17 -15 -17 -32
-3 -38 33 -43 32 -43 -10z m50 -28 c0 -29 -35 -8 -38 22 -4 30 -4 30 17 11 12
-11 21 -25 21 -33z m80 5 c21 -35 27 -93 10 -103 -17 -10 -2 -24 20 -18 12 3
29 -2 42 -13 l21 -19 -7 40 c-4 22 -9 48 -12 58 -6 17 -4 18 25 3 22 -12 32
-26 37 -52 7 -40 0 -168 -12 -198 -14 -37 18 -11 43 34 21 39 24 54 20 115 -4
55 -3 65 5 45 16 -39 15 -151 -2 -181 -8 -15 -23 -41 -34 -60 -22 -38 -35
-159 -18 -159 7 0 15 12 18 28 4 15 28 67 53 116 45 86 46 91 46 177 0 84 1
89 21 89 25 0 41 -44 54 -158 11 -86 28 -150 58 -208 20 -40 58 -81 67 -72 3
2 -9 45 -26 94 -25 71 -32 113 -37 207 l-7 118 25 -6 c37 -9 40 -15 49 -101 5
-43 14 -92 21 -109 6 -16 20 -61 29 -98 10 -37 22 -69 27 -70 18 -4 22 79 6
158 -8 44 -17 106 -19 138 -5 56 -4 57 19 48 17 -6 25 -18 29 -47 3 -22 20
-66 37 -99 32 -60 61 -171 62 -232 0 -50 16 -40 30 18 16 66 7 153 -24 232
-14 34 -28 74 -32 90 -5 24 -3 27 20 27 17 0 26 -5 26 -16 0 -9 8 -28 19 -42
56 -80 63 -109 59 -229 -2 -62 0 -113 3 -113 14 0 53 126 45 146 -3 8 -2 13 3
10 5 -3 17 -35 26 -71 23 -84 39 -71 33 27 -3 56 -13 94 -42 163 -54 130 -53
125 -20 125 27 0 32 -7 61 -78 18 -42 38 -98 45 -124 7 -27 15 -48 19 -48 8 0
21 59 14 69 -2 4 -11 39 -19 77 -8 38 -18 78 -22 89 -4 11 13 -9 36 -45 30
-45 50 -91 65 -150 27 -103 50 -160 65 -160 6 0 9 8 6 18 -3 9 -12 69 -21 132
-13 88 -24 127 -46 167 -16 29 -29 55 -29 58 0 3 15 5 33 5 30 0 35 -4 54 -47
11 -27 27 -85 36 -130 15 -78 61 -202 72 -191 3 2 -2 49 -10 104 -8 54 -15
117 -15 140 0 23 -5 55 -11 73 -14 40 -9 45 33 37 29 -6 37 -14 61 -69 15 -34
34 -83 41 -108 17 -54 61 -129 77 -129 7 0 8 7 4 18 -4 9 -13 42 -21 72 -7 30
-22 82 -34 114 -11 33 -18 61 -16 63 2 3 13 0 23 -5 12 -7 27 -38 41 -84 24
-80 54 -239 47 -246 -8 -9 -67 22 -90 46 -13 14 -36 55 -51 91 -38 91 -48 98
-41 28 12 -120 75 -205 161 -217 28 -3 42 -10 44 -22 3 -15 -4 -18 -40 -18
-60 0 -112 16 -147 46 -35 29 -51 16 -27 -21 30 -45 62 -58 155 -63 87 -3 145
-22 156 -50 3 -8 11 -68 17 -134 14 -137 10 -151 -46 -156 -37 -3 -45 5 -24
26 6 6 9 15 5 18 -10 11 -37 -16 -37 -37 0 -11 -7 -19 -15 -19 -24 0 -17 24
15 55 17 16 30 34 30 39 0 6 -11 34 -24 63 l-24 51 24 23 c13 12 24 34 24 47
0 24 -1 24 -22 8 -37 -26 -71 -38 -94 -32 -22 6 -22 7 8 36 17 17 28 33 25 36
-2 3 -35 0 -71 -7 -76 -13 -96 -5 -154 62 -17 20 -53 47 -78 59 -59 29 -120
23 -231 -24 -45 -19 -109 -40 -143 -47 -34 -6 -58 -15 -53 -20 10 -10 134 16
173 36 16 8 31 15 34 15 3 0 15 -19 27 -42 12 -23 37 -64 55 -91 37 -54 42
-83 19 -127 -13 -25 -22 -30 -53 -30 -43 0 -55 -6 -71 -38 -10 -19 -20 -22
-70 -22 -66 0 -75 5 -60 32 16 30 3 33 -22 4 -42 -49 -52 -22 -19 51 19 42 19
42 -1 30 -10 -6 -27 -31 -36 -55 l-16 -43 -35 33 c-26 24 -33 28 -27 13 22
-58 20 -65 -24 -65 -29 0 -43 5 -48 16 -3 9 2 77 12 150 l18 134 51 0 51 0 4
43 c8 70 6 141 -3 162 -6 16 -12 3 -27 -60 -28 -115 -64 -162 -71 -92 -2 17
-7 30 -13 29 -5 -2 -9 -9 -7 -15 2 -6 -7 -92 -19 -191 -24 -199 -35 -226 -91
-226 -33 0 -38 23 -10 53 16 19 16 19 -3 16 -11 -2 -27 -19 -35 -36 -16 -36
-55 -48 -42 -14 10 27 49 71 63 71 8 0 10 19 6 64 -6 60 -5 64 18 74 13 6 29
21 35 33 12 21 11 21 -21 15 -38 -6 -51 -1 -67 31 -10 19 -8 26 18 52 17 16
30 36 30 45 0 13 -7 12 -46 -5 -44 -18 -48 -18 -65 -3 -23 21 -24 57 -4 114
18 52 20 113 3 108 -7 -3 -16 -20 -21 -39 -5 -19 -12 -38 -16 -44 -25 -32 -29
-73 -10 -114 l18 -41 -21 11 c-34 18 -101 90 -142 152 -59 88 -133 137 -209
137 -25 0 -58 7 -73 15 l-29 15 28 0 c43 0 31 18 -17 25 -53 8 -88 -6 -41 -16
l30 -7 -32 -1 c-61 -2 -62 68 -2 100 20 10 26 39 9 39 -5 0 -10 -4 -10 -10 0
-5 -12 -10 -26 -10 -25 0 -24 3 32 60 65 67 121 100 170 100 28 0 34 5 45 35
7 19 17 35 21 35 5 0 17 -15 28 -32z m1439 -341 l-12 -26 -18 24 c-11 13 -19
38 -19 56 l0 34 31 -31 c27 -28 29 -33 18 -57z m-1661 -4 c26 -5 30 -8 21 -19
-14 -17 -61 -18 -77 -2 -19 19 -15 41 6 33 9 -4 32 -9 50 -12z m2194 -33 c5
-35 2 -40 -28 -40 -16 0 -23 7 -27 27 -7 35 -2 43 27 43 19 0 25 -7 28 -30z
m-446 -17 c17 -23 17 -48 0 -62 -22 -19 -48 23 -34 55 13 29 17 29 34 7z
m-1405 -190 c19 -19 53 -47 77 -62 l43 -27 -59 -55 c-94 -88 -273 -243 -296
-256 -25 -15 -96 -17 -96 -3 0 5 11 17 26 26 17 11 22 20 15 27 -14 14 -61
-19 -61 -43 0 -15 -7 -20 -26 -20 -25 0 -26 1 -12 22 8 12 29 29 47 39 18 9
28 20 22 23 -12 8 -71 -20 -89 -43 -10 -12 -12 -13 -9 -2 7 30 57 56 110 57
l51 2 50 71 c32 46 53 68 60 62 10 -9 53 -14 86 -12 9 1 0 16 -25 41 -45 47
-40 66 15 49 25 -7 43 -7 63 0 35 14 34 27 -2 34 -16 3 -41 16 -56 29 -25 22
-26 26 -19 87 l7 64 22 -38 c13 -20 38 -53 56 -72z m1839 90 c0 -5 -7 -17 -16
-28 -11 -15 -18 -17 -32 -9 -9 6 -18 19 -20 28 -3 12 4 16 32 16 20 0 36 -3
36 -7z m-324 -69 l-7 -27 -26 25 c-22 22 -23 28 -13 48 l12 22 20 -20 c16 -15
19 -27 14 -48z m208 -16 c6 -25 1 -33 -30 -42 -19 -6 -21 -3 -16 21 8 44 36
57 46 21z m-114 3 c0 -23 -14 -41 -32 -41 -14 0 -18 5 -14 16 3 9 6 20 6 25 0
5 9 9 20 9 11 0 20 -4 20 -9z m-635 -65 c14 -10 19 -27 20 -77 0 -35 5 -79 9
-96 8 -32 5 -36 -73 -114 -78 -78 -83 -81 -117 -76 -20 4 -38 8 -40 10 -9 8 8
36 24 40 15 4 15 5 -1 12 -20 8 -45 -9 -57 -40 -9 -19 -9 -19 -9 2 -1 29 35
53 80 53 32 0 39 4 53 34 9 19 16 41 16 50 0 8 10 21 23 27 48 26 49 52 1 43
-28 -5 -39 -2 -54 14 -19 20 -19 21 -1 27 26 8 71 44 71 57 0 6 -21 7 -61 3
-59 -7 -78 0 -79 27 0 18 170 22 195 4z m79 -45 c14 -16 147 -95 216 -130 15
-7 59 -86 60 -107 0 -7 -15 -15 -34 -18 -19 -4 -39 -13 -46 -21 -15 -18 -87
-20 -93 -2 -4 9 -7 9 -18 -1 -32 -30 -40 8 -13 61 17 32 17 32 -4 14 -11 -10
-26 -32 -33 -49 l-12 -30 -18 23 -17 23 5 -27 c5 -26 4 -27 -45 -27 -28 0 -54
5 -57 10 -4 6 14 35 39 65 49 57 52 67 35 125 -12 38 -5 110 10 110 4 0 16 -9
25 -19z m-865 -28 c20 -42 41 -128 41 -173 0 -21 -5 -30 -16 -30 -8 0 -30 -11
-48 -25 -18 -14 -35 -23 -38 -20 -3 3 -1 26 3 52 5 25 7 48 5 51 -7 6 -36 -55
-36 -74 0 -14 -6 -12 -31 12 l-32 29 7 -30 c4 -16 8 -34 9 -40 2 -13 -203 -19
-215 -7 -5 5 48 59 129 129 76 66 147 130 157 142 27 30 43 26 65 -16z m1088
-273 c-11 -29 -27 -41 -27 -19 0 16 20 49 29 49 5 0 4 -13 -2 -30z m-1120 -10
c-7 -19 -15 -26 -21 -20 -6 6 -3 17 9 30 24 27 25 25 12 -10z"/>
<path d="M697 1074 c-10 -10 -9 -44 2 -44 5 0 16 -3 25 -6 9 -3 16 -2 16 4 0
16 -35 54 -43 46z"/>
<path d="M543 946 c-41 -36 -19 -51 30 -20 20 13 37 29 37 34 0 18 -39 10 -67
-14z"/>
<path d="M639 918 c-15 -29 -28 -38 -56 -38 -28 0 -30 -16 -4 -30 39 -21 91
19 91 69 0 28 -16 27 -31 -1z"/>
<path d="M696 893 c-8 -57 -23 -79 -59 -88 -33 -9 -35 -30 -5 -38 50 -13 101
54 96 125 -4 59 -24 59 -32 1z"/>
<path d="M780 824 c0 -30 -8 -59 -21 -81 -23 -37 -19 -54 6 -33 28 23 45 67
45 115 0 33 -4 45 -15 45 -11 0 -15 -12 -15 -46z"/>
<path d="M460 800 c0 -5 8 -10 18 -10 9 -1 34 -3 55 -6 37 -6 52 8 21 20 -25
10 -94 7 -94 -4z"/>
</g>
</svg>
